# xmcd
#
# Track frame offsets:
#	150
#	20380
#	39974
#	54589
#	77519
#	96603
#	111838
#	128215
#	146690
#	161470
#	176744
#	193729
#
# Disc length: 2802 seconds
#
# Revision: 1
# Processed by: cddbd v1.5.2PL0 Copyright (c) Steve Scherf et al.
# Submitted via: audiograbber 1.83.01
#
DISCID=a00af00c
DTITLE=Doodle Bugs - Den gode gamle tida
DYEAR=2011
DGENRE=Dance Hall
TTITLE0=Vi har funnet hverandre (m/Hanne Mette)
TTITLE1=Danse i den syvende himmel
TTITLE2=Hemnesværing
TTITLE3=Jeg elsker deg
TTITLE4=Den gode gamle tida
TTITLE5=Der finnes ei jente
TTITLE6=Filosofen
TTITLE7=Livets solnedgang
TTITLE8=Når katta er ute
TTITLE9=En liten sang til deg
TTITLE10=Leonora
TTITLE11=Det er deg du
EXTD=
EXTT0=
EXTT1=
EXTT2=
EXTT3=
EXTT4=
EXTT5=
EXTT6=
EXTT7=
EXTT8=
EXTT9=
EXTT10=
EXTT11=
PLAYORDER=
